<svg width="123" height="40" viewBox="0 0 123 40" fill="none" xmlns="http://www.w3.org/2000/svg">
<rect width="123" height="40" rx="10" fill="#DB7042"/>
<path d="M26.3594 23.1172H31.3359V25H24.0156V13.625H26.3594V23.1172ZM32.1875 20.6953C32.1875 19.8568 32.349 19.1094 32.6719 18.4531C32.9948 17.7969 33.4583 17.2891 34.0625 16.9297C34.6719 16.5703 35.3776 16.3906 36.1797 16.3906C37.3203 16.3906 38.25 16.7396 38.9688 17.4375C39.6927 18.1354 40.0964 19.0833 40.1797 20.2812L40.1953 20.8594C40.1953 22.1562 39.8333 23.1979 39.1094 23.9844C38.3854 24.7656 37.4141 25.1562 36.1953 25.1562C34.9766 25.1562 34.0026 24.7656 33.2734 23.9844C32.5495 23.2031 32.1875 22.1406 32.1875 20.7969V20.6953ZM34.4453 20.8594C34.4453 21.6615 34.5964 22.276 34.8984 22.7031C35.2005 23.125 35.6328 23.3359 36.1953 23.3359C36.7422 23.3359 37.1693 23.1276 37.4766 22.7109C37.7839 22.2891 37.9375 21.6172 37.9375 20.6953C37.9375 19.9089 37.7839 19.2995 37.4766 18.8672C37.1693 18.4349 36.737 18.2188 36.1797 18.2188C35.6276 18.2188 35.2005 18.4349 34.8984 18.8672C34.5964 19.2943 34.4453 19.9583 34.4453 20.8594ZM46.4844 25C46.3802 24.7969 46.3047 24.5443 46.2578 24.2422C45.7109 24.8516 45 25.1562 44.125 25.1562C43.2969 25.1562 42.6094 24.9167 42.0625 24.4375C41.5208 23.9583 41.25 23.3542 41.25 22.625C41.25 21.7292 41.5807 21.0417 42.2422 20.5625C42.9089 20.0833 43.8698 19.8411 45.125 19.8359H46.1641V19.3516C46.1641 18.9609 46.0625 18.6484 45.8594 18.4141C45.6615 18.1797 45.3464 18.0625 44.9141 18.0625C44.5339 18.0625 44.2344 18.1536 44.0156 18.3359C43.8021 18.5182 43.6953 18.7682 43.6953 19.0859H41.4375C41.4375 18.5964 41.5885 18.1432 41.8906 17.7266C42.1927 17.3099 42.6198 16.9844 43.1719 16.75C43.724 16.5104 44.3438 16.3906 45.0312 16.3906C46.0729 16.3906 46.8984 16.6536 47.5078 17.1797C48.1224 17.7005 48.4297 18.4349 48.4297 19.3828V23.0469C48.4349 23.849 48.5469 24.4557 48.7656 24.8672V25H46.4844ZM44.6172 23.4297C44.9505 23.4297 45.2578 23.3568 45.5391 23.2109C45.8203 23.0599 46.0286 22.8594 46.1641 22.6094V21.1562H45.3203C44.1901 21.1562 43.5885 21.5469 43.5156 22.3281L43.5078 22.4609C43.5078 22.7422 43.6068 22.974 43.8047 23.1562C44.0026 23.3385 44.2734 23.4297 44.6172 23.4297ZM49.8125 20.7109C49.8125 19.3932 50.1068 18.3438 50.6953 17.5625C51.2891 16.7812 52.099 16.3906 53.125 16.3906C53.9479 16.3906 54.6276 16.6979 55.1641 17.3125V13H57.4297V25H55.3906L55.2812 24.1016C54.7188 24.8047 53.9948 25.1562 53.1094 25.1562C52.1146 25.1562 51.3151 24.7656 50.7109 23.9844C50.112 23.1979 49.8125 22.1068 49.8125 20.7109ZM52.0703 20.875C52.0703 21.6667 52.2083 22.2734 52.4844 22.6953C52.7604 23.1172 53.1615 23.3281 53.6875 23.3281C54.3854 23.3281 54.8776 23.0339 55.1641 22.4453V19.1094C54.8828 18.5208 54.3958 18.2266 53.7031 18.2266C52.6146 18.2266 52.0703 19.1094 52.0703 20.875ZM66.375 13.625L69.2969 21.875L72.2031 13.625H75.2812V25H72.9297V21.8906L73.1641 16.5234L70.0938 25H68.4844L65.4219 16.5312L65.6562 21.8906V25H63.3125V13.625H66.375ZM76.8281 20.6953C76.8281 19.8568 76.9896 19.1094 77.3125 18.4531C77.6354 17.7969 78.099 17.2891 78.7031 16.9297C79.3125 16.5703 80.0182 16.3906 80.8203 16.3906C81.9609 16.3906 82.8906 16.7396 83.6094 17.4375C84.3333 18.1354 84.737 19.0833 84.8203 20.2812L84.8359 20.8594C84.8359 22.1562 84.474 23.1979 83.75 23.9844C83.026 24.7656 82.0547 25.1562 80.8359 25.1562C79.6172 25.1562 78.6432 24.7656 77.9141 23.9844C77.1901 23.2031 76.8281 22.1406 76.8281 20.7969V20.6953ZM79.0859 20.8594C79.0859 21.6615 79.237 22.276 79.5391 22.7031C79.8411 23.125 80.2734 23.3359 80.8359 23.3359C81.3828 23.3359 81.8099 23.1276 82.1172 22.7109C82.4245 22.2891 82.5781 21.6172 82.5781 20.6953C82.5781 19.9089 82.4245 19.2995 82.1172 18.8672C81.8099 18.4349 81.3776 18.2188 80.8203 18.2188C80.2682 18.2188 79.8411 18.4349 79.5391 18.8672C79.237 19.2943 79.0859 19.9583 79.0859 20.8594ZM90.9766 18.6641C90.6693 18.6224 90.3984 18.6016 90.1641 18.6016C89.3099 18.6016 88.75 18.8906 88.4844 19.4688V25H86.2266V16.5469H88.3594L88.4219 17.5547C88.875 16.7786 89.5026 16.3906 90.3047 16.3906C90.5547 16.3906 90.7891 16.4245 91.0078 16.4922L90.9766 18.6641ZM95.8047 25.1562C94.5651 25.1562 93.5547 24.776 92.7734 24.0156C91.9974 23.2552 91.6094 22.2422 91.6094 20.9766V20.7578C91.6094 19.9089 91.7734 19.151 92.1016 18.4844C92.4297 17.8125 92.8932 17.2969 93.4922 16.9375C94.0964 16.5729 94.7839 16.3906 95.5547 16.3906C96.7109 16.3906 97.6198 16.7552 98.2812 17.4844C98.9479 18.2135 99.2812 19.2474 99.2812 20.5859V21.5078H93.8984C93.9714 22.0599 94.1901 22.5026 94.5547 22.8359C94.9245 23.1693 95.3906 23.3359 95.9531 23.3359C96.8229 23.3359 97.5026 23.0208 97.9922 22.3906L99.1016 23.6328C98.763 24.112 98.3047 24.487 97.7266 24.7578C97.1484 25.0234 96.5078 25.1562 95.8047 25.1562ZM95.5469 18.2188C95.099 18.2188 94.7344 18.3698 94.4531 18.6719C94.1771 18.974 94 19.4062 93.9219 19.9688H97.0625V19.7891C97.0521 19.2891 96.9167 18.9036 96.6562 18.6328C96.3958 18.3568 96.026 18.2188 95.5469 18.2188Z" fill="#F5EFE0"/>
</svg>
