<svg width="118" height="24" viewBox="0 0 118 24" fill="none" xmlns="http://www.w3.org/2000/svg">
<path d="M5.22656 13.8359H3.35938V18H1.01562V6.625H5.24219C6.58594 6.625 7.6224 6.92448 8.35156 7.52344C9.08073 8.1224 9.44531 8.96875 9.44531 10.0625C9.44531 10.8385 9.27604 11.487 8.9375 12.0078C8.60417 12.5234 8.09635 12.9349 7.41406 13.2422L9.875 17.8906V18H7.35938L5.22656 13.8359ZM3.35938 11.9375H5.25C5.83854 11.9375 6.29427 11.7891 6.61719 11.4922C6.9401 11.1901 7.10156 10.776 7.10156 10.25C7.10156 9.71354 6.94792 9.29167 6.64062 8.98438C6.33854 8.67708 5.8724 8.52344 5.24219 8.52344H3.35938V11.9375ZM14.9766 18.1562C13.737 18.1562 12.7266 17.776 11.9453 17.0156C11.1693 16.2552 10.7812 15.2422 10.7812 13.9766V13.7578C10.7812 12.9089 10.9453 12.151 11.2734 11.4844C11.6016 10.8125 12.0651 10.2969 12.6641 9.9375C13.2682 9.57292 13.9557 9.39062 14.7266 9.39062C15.8828 9.39062 16.7917 9.75521 17.4531 10.4844C18.1198 11.2135 18.4531 12.2474 18.4531 13.5859V14.5078H13.0703C13.1432 15.0599 13.362 15.5026 13.7266 15.8359C14.0964 16.1693 14.5625 16.3359 15.125 16.3359C15.9948 16.3359 16.6745 16.0208 17.1641 15.3906L18.2734 16.6328C17.9349 17.112 17.4766 17.487 16.8984 17.7578C16.3203 18.0234 15.6797 18.1562 14.9766 18.1562ZM14.7188 11.2188C14.2708 11.2188 13.9062 11.3698 13.625 11.6719C13.349 11.974 13.1719 12.4062 13.0938 12.9688H16.2344V12.7891C16.224 12.2891 16.0885 11.9036 15.8281 11.6328C15.5677 11.3568 15.1979 11.2188 14.7188 11.2188ZM24.6406 18C24.5365 17.7969 24.4609 17.5443 24.4141 17.2422C23.8672 17.8516 23.1562 18.1562 22.2812 18.1562C21.4531 18.1562 20.7656 17.9167 20.2188 17.4375C19.6771 16.9583 19.4062 16.3542 19.4062 15.625C19.4062 14.7292 19.737 14.0417 20.3984 13.5625C21.0651 13.0833 22.026 12.8411 23.2812 12.8359H24.3203V12.3516C24.3203 11.9609 24.2188 11.6484 24.0156 11.4141C23.8177 11.1797 23.5026 11.0625 23.0703 11.0625C22.6901 11.0625 22.3906 11.1536 22.1719 11.3359C21.9583 11.5182 21.8516 11.7682 21.8516 12.0859H19.5938C19.5938 11.5964 19.7448 11.1432 20.0469 10.7266C20.349 10.3099 20.776 9.98438 21.3281 9.75C21.8802 9.51042 22.5 9.39062 23.1875 9.39062C24.2292 9.39062 25.0547 9.65365 25.6641 10.1797C26.2786 10.7005 26.5859 11.4349 26.5859 12.3828V16.0469C26.5911 16.849 26.7031 17.4557 26.9219 17.8672V18H24.6406ZM22.7734 16.4297C23.1068 16.4297 23.4141 16.3568 23.6953 16.2109C23.9766 16.0599 24.1849 15.8594 24.3203 15.6094V14.1562H23.4766C22.3464 14.1562 21.7448 14.5469 21.6719 15.3281L21.6641 15.4609C21.6641 15.7422 21.763 15.974 21.9609 16.1562C22.1589 16.3385 22.4297 16.4297 22.7734 16.4297ZM27.9688 13.7109C27.9688 12.3932 28.263 11.3438 28.8516 10.5625C29.4453 9.78125 30.2552 9.39062 31.2812 9.39062C32.1042 9.39062 32.7839 9.69792 33.3203 10.3125V6H35.5859V18H33.5469L33.4375 17.1016C32.875 17.8047 32.151 18.1562 31.2656 18.1562C30.2708 18.1562 29.4714 17.7656 28.8672 16.9844C28.2682 16.1979 27.9688 15.1068 27.9688 13.7109ZM30.2266 13.875C30.2266 14.6667 30.3646 15.2734 30.6406 15.6953C30.9167 16.1172 31.3177 16.3281 31.8438 16.3281C32.5417 16.3281 33.0339 16.0339 33.3203 15.4453V12.1094C33.0391 11.5208 32.5521 11.2266 31.8594 11.2266C30.7708 11.2266 30.2266 12.1094 30.2266 13.875ZM47.8906 15.6562H43.7812L43 18H40.5078L44.7422 6.625H46.9141L51.1719 18H48.6797L47.8906 15.6562ZM44.4141 13.7578H47.2578L45.8281 9.5L44.4141 13.7578ZM56.8359 11.6641C56.5286 11.6224 56.2578 11.6016 56.0234 11.6016C55.1693 11.6016 54.6094 11.8906 54.3438 12.4688V18H52.0859V9.54688H54.2188L54.2812 10.5547C54.7344 9.77865 55.362 9.39062 56.1641 9.39062C56.4141 9.39062 56.6484 9.42448 56.8672 9.49219L56.8359 11.6641ZM61.0234 7.46875V9.54688H62.4688V11.2031H61.0234V15.4219C61.0234 15.7344 61.0833 15.9583 61.2031 16.0938C61.3229 16.2292 61.5521 16.2969 61.8906 16.2969C62.1406 16.2969 62.362 16.2786 62.5547 16.2422V17.9531C62.112 18.0885 61.6562 18.1562 61.1875 18.1562C59.6042 18.1562 58.7969 17.3568 58.7656 15.7578V11.2031H57.5312V9.54688H58.7656V7.46875H61.0234ZM66.1094 18H63.8438V9.54688H66.1094V18ZM63.7109 7.35938C63.7109 7.02083 63.8229 6.74219 64.0469 6.52344C64.276 6.30469 64.5859 6.19531 64.9766 6.19531C65.362 6.19531 65.6693 6.30469 65.8984 6.52344C66.1276 6.74219 66.2422 7.02083 66.2422 7.35938C66.2422 7.70312 66.125 7.98438 65.8906 8.20312C65.6615 8.42188 65.3568 8.53125 64.9766 8.53125C64.5964 8.53125 64.2891 8.42188 64.0547 8.20312C63.8255 7.98438 63.7109 7.70312 63.7109 7.35938ZM71.4922 16.3359C71.9089 16.3359 72.2474 16.2214 72.5078 15.9922C72.7682 15.763 72.9036 15.4583 72.9141 15.0781H75.0312C75.026 15.651 74.8698 16.1771 74.5625 16.6562C74.2552 17.1302 73.8333 17.5 73.2969 17.7656C72.7656 18.026 72.1771 18.1562 71.5312 18.1562C70.3229 18.1562 69.3698 17.7734 68.6719 17.0078C67.974 16.237 67.625 15.1745 67.625 13.8203V13.6719C67.625 12.3698 67.9714 11.3307 68.6641 10.5547C69.3568 9.77865 70.3073 9.39062 71.5156 9.39062C72.5729 9.39062 73.4193 9.69271 74.0547 10.2969C74.6953 10.8958 75.0208 11.6953 75.0312 12.6953H72.9141C72.9036 12.2578 72.7682 11.9036 72.5078 11.6328C72.2474 11.3568 71.9036 11.2188 71.4766 11.2188C70.9505 11.2188 70.5521 11.4115 70.2812 11.7969C70.0156 12.1771 69.8828 12.7969 69.8828 13.6562V13.8906C69.8828 14.7604 70.0156 15.3854 70.2812 15.7656C70.5469 16.1458 70.9505 16.3359 71.4922 16.3359ZM78.7031 18H76.4375V6H78.7031V18ZM84.4609 18.1562C83.2214 18.1562 82.2109 17.776 81.4297 17.0156C80.6536 16.2552 80.2656 15.2422 80.2656 13.9766V13.7578C80.2656 12.9089 80.4297 12.151 80.7578 11.4844C81.0859 10.8125 81.5495 10.2969 82.1484 9.9375C82.7526 9.57292 83.4401 9.39062 84.2109 9.39062C85.3672 9.39062 86.276 9.75521 86.9375 10.4844C87.6042 11.2135 87.9375 12.2474 87.9375 13.5859V14.5078H82.5547C82.6276 15.0599 82.8464 15.5026 83.2109 15.8359C83.5807 16.1693 84.0469 16.3359 84.6094 16.3359C85.4792 16.3359 86.1589 16.0208 86.6484 15.3906L87.7578 16.6328C87.4193 17.112 86.9609 17.487 86.3828 17.7578C85.8047 18.0234 85.1641 18.1562 84.4609 18.1562ZM84.2031 11.2188C83.7552 11.2188 83.3906 11.3698 83.1094 11.6719C82.8333 11.974 82.6562 12.4062 82.5781 12.9688H85.7188V12.7891C85.7083 12.2891 85.5729 11.9036 85.3125 11.6328C85.0521 11.3568 84.6823 11.2188 84.2031 11.2188Z" fill="#DB7042"/>
<path d="M117.707 14.7071C118.098 14.3166 118.098 13.6834 117.707 13.2929L111.343 6.92893C110.953 6.53841 110.319 6.53841 109.929 6.92893C109.538 7.31946 109.538 7.95262 109.929 8.34315L115.586 14L109.929 19.6569C109.538 20.0474 109.538 20.6805 109.929 21.0711C110.319 21.4616 110.953 21.4616 111.343 21.0711L117.707 14.7071ZM104 15H117V13H104V15Z" fill="#DB7042"/>
</svg>
