<svg width="272" height="48" viewBox="0 0 272 48" fill="none" xmlns="http://www.w3.org/2000/svg">
<path d="M7.472 36.288C5.936 36.288 4.64 36 3.584 35.424C2.528 34.816 1.744 34.048 1.232 33.12C0.72 32.16 0.464 31.168 0.464 30.144C0.464 29.088 0.72 28.176 1.232 27.408C1.712 26.608 2.304 26.032 3.008 25.68C4.256 23.44 5.344 21.184 6.272 18.912C7.2 16.608 8.08 14.128 8.912 11.472L16.016 10.512C16.176 14.608 16.448 19.04 16.832 23.808C16.992 25.728 17.072 27.12 17.072 27.984C17.072 28.72 17.008 29.328 16.88 29.808C18.384 28.944 19.536 28.144 20.336 27.408H22.352C20.304 29.776 17.856 31.776 15.008 33.408C14.08 34.4 12.928 35.136 11.552 35.616C10.208 36.064 8.848 36.288 7.472 36.288ZM5.936 32.496C7.12 32.496 8.112 32.144 8.912 31.44C9.712 30.736 10.112 29.6 10.112 28.032C10.112 27.072 10.016 25.728 9.824 24C9.504 20.352 9.296 17.904 9.2 16.656C8.432 19.184 7.136 22.208 5.312 25.728C6.048 26.112 6.416 26.672 6.416 27.408C6.416 28.016 6.208 28.56 5.792 29.04C5.408 29.52 4.912 29.76 4.304 29.76C3.632 29.76 3.2 29.552 3.008 29.136C3.008 30.288 3.232 31.136 3.68 31.68C4.16 32.224 4.912 32.496 5.936 32.496ZM28.3441 9.408C27.2881 9.408 26.3921 9.04 25.6561 8.304C24.9201 7.568 24.5521 6.672 24.5521 5.616C24.5521 4.56 24.9201 3.664 25.6561 2.928C26.3921 2.16 27.2881 1.776 28.3441 1.776C29.4001 1.776 30.2961 2.16 31.0321 2.928C31.8001 3.664 32.1841 4.56 32.1841 5.616C32.1841 6.672 31.8001 7.568 31.0321 8.304C30.2961 9.04 29.4001 9.408 28.3441 9.408ZM25.0801 36.288C23.5441 36.288 22.2961 35.808 21.3361 34.848C20.4081 33.888 19.9441 32.448 19.9441 30.528C19.9441 29.728 20.0721 28.688 20.3281 27.408L23.5921 12H30.5041L27.0481 28.32C26.9201 28.8 26.8561 29.312 26.8561 29.856C26.8561 30.496 27.0001 30.96 27.2881 31.248C27.6081 31.504 28.1201 31.632 28.8241 31.632C29.7521 31.632 30.6161 31.248 31.4161 30.48C32.2161 29.68 32.7921 28.656 33.1441 27.408H35.1601C33.9761 30.864 32.4561 33.216 30.6001 34.464C28.7441 35.68 26.9041 36.288 25.0801 36.288ZM37.877 36.288C36.341 36.288 35.093 35.808 34.133 34.848C33.205 33.888 32.741 32.448 32.741 30.528C32.741 29.728 32.869 28.688 33.125 27.408L36.005 13.92H34.421L34.805 12H36.389L37.829 5.376L44.933 4.416L43.301 12H46.181L45.797 13.92H42.917L39.845 28.32C39.717 28.8 39.653 29.312 39.653 29.856C39.653 30.496 39.797 30.96 40.085 31.248C40.405 31.504 40.917 31.632 41.621 31.632C42.549 31.632 43.413 31.248 44.213 30.48C45.013 29.68 45.589 28.656 45.941 27.408H47.957C46.773 30.864 45.253 33.216 43.397 34.464C41.541 35.68 39.701 36.288 37.877 36.288ZM50.6739 36.288C49.1379 36.288 47.8899 35.808 46.9299 34.848C46.0019 33.888 45.5379 32.448 45.5379 30.528C45.5379 29.728 45.6659 28.688 45.9219 27.408L48.8019 13.92H47.2179L47.6019 12H49.1859L50.6259 5.376L57.7299 4.416L56.0979 12H58.9779L58.5939 13.92H55.7139L52.6419 28.32C52.5139 28.8 52.4499 29.312 52.4499 29.856C52.4499 30.496 52.5939 30.96 52.8819 31.248C53.2019 31.504 53.7139 31.632 54.4179 31.632C55.3459 31.632 56.2099 31.248 57.0099 30.48C57.8099 29.68 58.3859 28.656 58.7379 27.408H60.7539C59.5699 30.864 58.0499 33.216 56.1939 34.464C54.3379 35.68 52.4979 36.288 50.6739 36.288ZM66.7348 9.408C65.6788 9.408 64.7828 9.04 64.0468 8.304C63.3108 7.568 62.9428 6.672 62.9428 5.616C62.9428 4.56 63.3108 3.664 64.0468 2.928C64.7828 2.16 65.6788 1.776 66.7348 1.776C67.7908 1.776 68.6868 2.16 69.4228 2.928C70.1908 3.664 70.5748 4.56 70.5748 5.616C70.5748 6.672 70.1908 7.568 69.4228 8.304C68.6868 9.04 67.7908 9.408 66.7348 9.408ZM63.4708 36.288C61.9348 36.288 60.6868 35.808 59.7268 34.848C58.7988 33.888 58.3347 32.448 58.3347 30.528C58.3347 29.728 58.4627 28.688 58.7188 27.408L61.9828 12H68.8948L65.4388 28.32C65.3108 28.8 65.2468 29.312 65.2468 29.856C65.2468 30.496 65.3908 30.96 65.6788 31.248C65.9988 31.504 66.5108 31.632 67.2148 31.632C68.1428 31.632 69.0068 31.248 69.8068 30.48C70.6068 29.68 71.1828 28.656 71.5348 27.408H73.5508C72.3668 30.864 70.8468 33.216 68.9908 34.464C67.1348 35.68 65.2948 36.288 63.4708 36.288ZM88.8436 36.288C86.8916 36.288 85.4516 35.776 84.5236 34.752C83.6276 33.696 83.1796 32.4 83.1796 30.864C83.1796 30.192 83.2596 29.44 83.4196 28.608C83.5796 27.744 83.7396 26.912 83.8996 26.112C84.0916 25.312 84.2196 24.8 84.2836 24.576C84.5396 23.456 84.7796 22.352 85.0036 21.264C85.2276 20.176 85.3396 19.296 85.3396 18.624C85.3396 16.992 84.7636 16.176 83.6116 16.176C82.7796 16.176 82.0436 16.592 81.4036 17.424C80.7636 18.224 80.2516 19.28 79.8676 20.592L76.6036 36H69.6916L74.7796 12H81.6916L81.1636 14.496C82.7636 12.704 84.6356 11.808 86.7796 11.808C88.4116 11.808 89.7076 12.256 90.6676 13.152C91.6276 14.048 92.1076 15.408 92.1076 17.232C92.1076 18.16 91.9956 19.2 91.7716 20.352C91.5476 21.472 91.2276 22.848 90.8116 24.48C90.5556 25.472 90.3156 26.448 90.0916 27.408C89.8996 28.336 89.8036 29.072 89.8036 29.616C89.8036 30.256 89.9476 30.752 90.2356 31.104C90.5236 31.456 91.0196 31.632 91.7236 31.632C92.6836 31.632 93.4516 31.296 94.0276 30.624C94.6036 29.92 95.1796 28.848 95.7556 27.408H97.7716C96.5876 30.928 95.2116 33.296 93.6436 34.512C92.1076 35.696 90.5076 36.288 88.8436 36.288ZM104.198 48C102.694 48 101.366 47.504 100.214 46.512C99.094 45.552 98.534 44.32 98.534 42.816C98.534 41.408 98.886 40.256 99.59 39.36C100.294 38.464 101.206 37.76 102.326 37.248C103.446 36.736 104.95 36.192 106.838 35.616L107.27 33.6C105.606 35.392 103.686 36.288 101.51 36.288C99.686 36.288 98.166 35.664 96.95 34.416C95.734 33.168 95.126 31.216 95.126 28.56C95.126 26.192 95.59 23.712 96.518 21.12C97.478 18.496 98.886 16.288 100.742 14.496C102.63 12.672 104.87 11.76 107.462 11.76C108.774 11.76 109.75 11.984 110.39 12.432C111.03 12.88 111.35 13.472 111.35 14.208V14.304L111.83 12H118.79L112.934 39.84C112.294 42.912 111.158 45.04 109.526 46.224C107.926 47.408 106.15 48 104.198 48ZM104.63 31.632C105.366 31.632 106.102 31.328 106.838 30.72C107.606 30.08 108.15 29.184 108.47 28.032L110.918 16.416C110.662 15.296 110.006 14.736 108.95 14.736C107.67 14.736 106.518 15.488 105.494 16.992C104.47 18.464 103.67 20.256 103.094 22.368C102.518 24.448 102.23 26.288 102.23 27.888C102.23 29.488 102.454 30.512 102.902 30.96C103.382 31.408 103.958 31.632 104.63 31.632ZM103.094 43.728C103.67 43.728 104.214 43.424 104.726 42.816C105.238 42.24 105.638 41.296 105.926 39.984L106.502 37.152C104.806 37.728 103.494 38.4 102.566 39.168C101.638 39.936 101.174 40.928 101.174 42.144C101.174 42.528 101.366 42.88 101.75 43.2C102.134 43.552 102.582 43.728 103.094 43.728Z" fill="#DB7042"/>
<path d="M133.971 36.288C132.435 36.288 131.187 35.808 130.227 34.848C129.299 33.888 128.835 32.448 128.835 30.528C128.835 29.728 128.963 28.688 129.219 27.408L132.099 13.92H130.515L130.899 12H132.483L133.923 5.376L141.027 4.416L139.395 12H142.275L141.891 13.92H139.011L135.939 28.32C135.811 28.8 135.747 29.312 135.747 29.856C135.747 30.496 135.891 30.96 136.179 31.248C136.499 31.504 137.011 31.632 137.715 31.632C138.643 31.632 139.507 31.248 140.307 30.48C141.107 29.68 141.683 28.656 142.035 27.408H144.051C142.867 30.864 141.347 33.216 139.491 34.464C137.635 35.68 135.795 36.288 133.971 36.288ZM159.344 36.288C157.392 36.288 155.952 35.776 155.024 34.752C154.128 33.696 153.68 32.4 153.68 30.864C153.68 30.192 153.76 29.44 153.92 28.608C154.08 27.744 154.24 26.912 154.4 26.112C154.592 25.312 154.72 24.8 154.784 24.576C155.04 23.456 155.28 22.352 155.504 21.264C155.728 20.176 155.84 19.296 155.84 18.624C155.84 16.992 155.264 16.176 154.112 16.176C153.28 16.176 152.544 16.592 151.904 17.424C151.264 18.224 150.752 19.28 150.368 20.592L147.104 36H140.192L147.152 3.36L154.256 2.4L151.664 14.496C153.264 12.704 155.136 11.808 157.28 11.808C158.912 11.808 160.208 12.256 161.168 13.152C162.128 14.048 162.608 15.408 162.608 17.232C162.608 18.16 162.496 19.2 162.272 20.352C162.048 21.472 161.728 22.848 161.312 24.48C161.056 25.472 160.816 26.448 160.592 27.408C160.4 28.336 160.304 29.072 160.304 29.616C160.304 30.256 160.448 30.752 160.736 31.104C161.024 31.456 161.52 31.632 162.224 31.632C163.184 31.632 163.952 31.296 164.528 30.624C165.104 29.92 165.68 28.848 166.256 27.408H168.272C167.088 30.928 165.712 33.296 164.144 34.512C162.608 35.696 161.008 36.288 159.344 36.288ZM173.018 36.288C170.682 36.288 168.858 35.68 167.546 34.464C166.234 33.216 165.578 31.28 165.578 28.656C165.578 26.448 166.01 24.016 166.874 21.36C167.738 18.704 169.146 16.416 171.098 14.496C173.05 12.544 175.53 11.568 178.538 11.568C182.058 11.568 183.818 13.104 183.818 16.176C183.818 17.968 183.306 19.616 182.282 21.12C181.258 22.624 179.898 23.84 178.202 24.768C176.506 25.664 174.698 26.176 172.778 26.304C172.714 27.008 172.682 27.488 172.682 27.744C172.682 30.4 173.674 31.728 175.658 31.728C176.554 31.728 177.514 31.488 178.538 31.008C179.562 30.528 180.49 29.92 181.322 29.184C180.458 33.92 177.69 36.288 173.018 36.288ZM173.114 24C174.33 23.968 175.466 23.568 176.522 22.8C177.61 22.032 178.474 21.056 179.114 19.872C179.786 18.656 180.122 17.392 180.122 16.08C180.122 14.768 179.722 14.112 178.922 14.112C177.802 14.112 176.682 15.136 175.562 17.184C174.474 19.2 173.658 21.472 173.114 24ZM202.404 36.816C201.124 36.816 200.004 36.544 199.044 36C198.116 35.488 197.652 34.576 197.652 33.264C197.652 32.432 197.86 31.504 198.276 30.48C198.852 31.12 199.38 31.568 199.86 31.824C200.372 32.08 200.916 32.208 201.492 32.208C203.092 32.208 204.276 31.312 205.044 29.52C205.844 27.728 206.244 25.744 206.244 23.568C206.244 19.504 204.724 17.472 201.684 17.472C200.82 17.472 200.084 17.52 199.476 17.616L195.54 36H188.628L195.156 5.472L202.26 4.512L200.004 15.168H200.292C201.508 15.168 202.644 14.784 203.7 14.016C204.756 13.216 205.604 12.224 206.244 11.04C206.884 9.824 207.204 8.608 207.204 7.392C207.204 5.92 206.676 4.688 205.62 3.696C204.596 2.704 203.012 2.208 200.868 2.208C198.916 2.208 197.012 2.656 195.156 3.552C193.3 4.416 191.78 5.728 190.596 7.488C189.444 9.248 188.868 11.376 188.868 13.872C188.868 15.056 188.98 15.888 189.204 16.368C189.428 16.816 189.54 17.072 189.54 17.136C187.844 17.136 186.564 16.8 185.7 16.128C184.836 15.424 184.404 14.288 184.404 12.72C184.404 10.544 185.22 8.48 186.852 6.528C188.484 4.576 190.644 3.008 193.332 1.824C196.02 0.607998 198.852 -2.86102e-06 201.828 -2.86102e-06C204.068 -2.86102e-06 205.956 0.351997 207.492 1.056C209.028 1.76 210.164 2.688 210.9 3.84C211.668 4.992 212.052 6.256 212.052 7.632C212.052 9.104 211.636 10.528 210.804 11.904C209.972 13.28 208.788 14.4 207.252 15.264C209.172 15.616 210.596 16.512 211.524 17.952C212.452 19.36 212.916 21.04 212.916 22.992C212.916 24.816 212.564 26.8 211.86 28.944C211.188 31.088 210.052 32.944 208.452 34.512C206.884 36.048 204.868 36.816 202.404 36.816ZM219.33 36.288C217.794 36.288 216.546 35.808 215.586 34.848C214.658 33.888 214.194 32.448 214.194 30.528C214.194 29.728 214.322 28.688 214.578 27.408L219.714 3.36L226.818 2.4L221.298 28.32C221.17 28.8 221.106 29.312 221.106 29.856C221.106 30.496 221.25 30.96 221.538 31.248C221.858 31.504 222.37 31.632 223.074 31.632C224.002 31.632 224.866 31.248 225.666 30.48C226.466 29.68 227.042 28.656 227.394 27.408H229.41C228.226 30.864 226.706 33.216 224.85 34.464C222.994 35.68 221.154 36.288 219.33 36.288ZM234.383 36.192C232.015 36.192 230.143 35.584 228.767 34.368C227.391 33.152 226.703 31.232 226.703 28.608C226.703 26.432 227.151 24.016 228.047 21.36C228.943 18.704 230.383 16.416 232.367 14.496C234.351 12.544 236.847 11.568 239.855 11.568C243.951 11.568 245.999 14.128 245.999 19.248V19.296C246.095 19.328 246.271 19.344 246.527 19.344C247.583 19.344 248.799 19.072 250.175 18.528C251.551 17.952 252.799 17.264 253.919 16.464L254.351 17.76C253.423 18.752 252.207 19.6 250.703 20.304C249.231 20.976 247.615 21.456 245.855 21.744C245.599 24.656 244.943 27.2 243.887 29.376C242.831 31.552 241.471 33.232 239.807 34.416C238.143 35.6 236.335 36.192 234.383 36.192ZM236.303 31.872C237.071 31.872 237.839 31.44 238.607 30.576C239.375 29.68 240.047 28.48 240.623 26.976C241.199 25.44 241.615 23.744 241.871 21.888C241.007 21.696 240.575 21.024 240.575 19.872C240.575 18.56 241.071 17.696 242.063 17.28C241.999 16.224 241.839 15.504 241.583 15.12C241.327 14.704 240.879 14.496 240.239 14.496C239.183 14.496 238.159 15.264 237.167 16.8C236.175 18.336 235.375 20.176 234.767 22.32C234.159 24.464 233.855 26.352 233.855 27.984C233.855 29.52 234.031 30.56 234.383 31.104C234.735 31.616 235.375 31.872 236.303 31.872ZM256.917 48C255.413 48 254.085 47.504 252.933 46.512C251.813 45.552 251.253 44.32 251.253 42.816C251.253 41.408 251.605 40.256 252.309 39.36C253.013 38.464 253.925 37.76 255.045 37.248C256.165 36.736 257.669 36.192 259.557 35.616L259.989 33.6C258.325 35.392 256.405 36.288 254.229 36.288C252.405 36.288 250.885 35.664 249.669 34.416C248.453 33.168 247.845 31.216 247.845 28.56C247.845 26.192 248.309 23.712 249.237 21.12C250.197 18.496 251.605 16.288 253.461 14.496C255.349 12.672 257.589 11.76 260.181 11.76C261.493 11.76 262.469 11.984 263.109 12.432C263.749 12.88 264.069 13.472 264.069 14.208V14.304L264.549 12H271.509L265.653 39.84C265.013 42.912 263.877 45.04 262.245 46.224C260.645 47.408 258.869 48 256.917 48ZM257.349 31.632C258.085 31.632 258.821 31.328 259.557 30.72C260.325 30.08 260.869 29.184 261.189 28.032L263.637 16.416C263.381 15.296 262.725 14.736 261.669 14.736C260.389 14.736 259.237 15.488 258.213 16.992C257.189 18.464 256.389 20.256 255.813 22.368C255.237 24.448 254.949 26.288 254.949 27.888C254.949 29.488 255.173 30.512 255.621 30.96C256.101 31.408 256.677 31.632 257.349 31.632ZM255.813 43.728C256.389 43.728 256.933 43.424 257.445 42.816C257.957 42.24 258.357 41.296 258.645 39.984L259.221 37.152C257.525 37.728 256.213 38.4 255.285 39.168C254.357 39.936 253.893 40.928 253.893 42.144C253.893 42.528 254.085 42.88 254.469 43.2C254.853 43.552 255.301 43.728 255.813 43.728Z" fill="#1A1A1A"/>
</svg>
